<?xml version="1.0" encoding="UTF-8"?>
<svg xmlns="http://www.w3.org/2000/svg" xmlns:xlink="http://www.w3.org/1999/xlink" width="50px" height="50px" viewBox="0 0 50 50" version="1.1">
<g id="surface1">
<path style=" stroke:none;fill-rule:nonzero;fill:rgb(0%,0%,0%);fill-opacity:1;" d="M 24.5 6.644531 C 24.324219 6.726562 23.9375 7.203125 23.613281 7.710938 C 23.300781 8.222656 22.273438 9.867188 21.351562 11.363281 C 20.414062 12.859375 18.914062 15.28125 18 16.742188 C 17.101562 18.203125 16.210938 19.597656 16.050781 19.839844 C 15.886719 20.082031 15.75 20.304688 15.75 20.328125 C 15.75 20.375 14.976562 21.613281 12.6875 25.277344 C 12.148438 26.136719 11.074219 27.863281 10.3125 29.105469 C 9.539062 30.34375 8.164062 32.5625 7.25 34.03125 C 6.335938 35.492188 5.539062 36.816406 5.476562 36.945312 C 5.3125 37.28125 5.648438 37.953125 6.074219 38.136719 C 6.523438 38.324219 43.476562 38.324219 43.925781 38.136719 C 44.351562 37.953125 44.664062 37.328125 44.511719 36.96875 C 44.449219 36.816406 43.5625 35.332031 42.523438 33.671875 C 41.5 32.027344 40.226562 29.960938 39.6875 29.105469 C 38.8125 27.691406 37.625 25.777344 35.648438 22.609375 C 35.273438 22.007812 34.5625 20.859375 34.0625 20.0625 C 33.5625 19.257812 32.488281 17.542969 31.6875 16.234375 C 30.875 14.921875 29.5 12.730469 28.648438 11.363281 C 27.800781 9.996094 26.824219 8.417969 26.476562 7.859375 C 26.136719 7.304688 25.789062 6.796875 25.699219 6.738281 C 25.425781 6.527344 24.824219 6.480469 24.5 6.644531 Z M 26.164062 11.445312 C 26.75 12.394531 27.523438 13.625 27.875 14.203125 C 28.238281 14.773438 29.273438 16.441406 30.1875 17.914062 C 31.101562 19.375 32.164062 21.101562 32.5625 21.742188 C 33.6875 23.527344 35.136719 25.871094 35.398438 26.320312 C 35.539062 26.542969 35.914062 27.144531 36.238281 27.65625 C 36.5625 28.164062 37.523438 29.707031 38.375 31.078125 C 39.226562 32.445312 40.273438 34.125 40.710938 34.820312 C 41.136719 35.507812 41.5 36.085938 41.5 36.121094 C 41.5 36.15625 34.074219 36.179688 25 36.179688 C 15.925781 36.179688 8.5 36.15625 8.5 36.121094 C 8.5 36.097656 8.675781 35.796875 8.886719 35.460938 C 9.261719 34.867188 10.074219 33.570312 12.8125 29.164062 C 13.476562 28.074219 14.074219 27.132812 14.125 27.074219 C 14.175781 27.007812 14.351562 26.726562 14.523438 26.4375 C 14.699219 26.148438 15.261719 25.230469 15.773438 24.40625 C 16.289062 23.574219 17.148438 22.195312 17.6875 21.335938 C 18.226562 20.476562 19.3125 18.726562 20.101562 17.453125 C 20.886719 16.175781 21.710938 14.84375 21.9375 14.492188 C 22.148438 14.148438 22.886719 12.964844 23.5625 11.886719 C 24.238281 10.796875 24.8125 9.878906 24.835938 9.820312 C 24.976562 9.601562 25.175781 9.855469 26.164062 11.445312 Z M 26.164062 11.445312 "/>
<path style=" stroke:none;fill-rule:nonzero;fill:rgb(0%,0%,0%);fill-opacity:1;" d="M 23.261719 24.6875 C 22.4375 25 21.8125 25.546875 21.449219 26.25 C 21.273438 26.601562 21.125 26.960938 21.125 27.054688 C 21.125 27.132812 20.960938 27.320312 20.761719 27.457031 C 20.300781 27.773438 20.074219 28.386719 20.148438 29.128906 C 20.238281 29.9375 20.738281 30.390625 21.613281 30.472656 L 22.25 30.53125 L 22.25 28.941406 C 22.25 27.875 22.199219 27.285156 22.101562 27.121094 C 21.960938 26.925781 21.988281 26.808594 22.261719 26.34375 C 22.4375 26.042969 22.773438 25.683594 23 25.53125 C 23.375 25.300781 23.5625 25.277344 25 25.277344 C 26.4375 25.277344 26.625 25.300781 27 25.53125 C 27.226562 25.683594 27.5625 26.042969 27.738281 26.34375 C 28.011719 26.808594 28.039062 26.925781 27.914062 27.121094 C 27.800781 27.285156 27.75 27.875 27.75 28.929688 L 27.75 30.496094 L 28.226562 30.496094 C 28.835938 30.496094 29.238281 30.289062 29.585938 29.8125 C 30.085938 29.128906 29.898438 27.863281 29.25 27.445312 C 29.085938 27.34375 28.863281 26.992188 28.738281 26.679688 C 28.351562 25.636719 27.726562 25.046875 26.648438 24.664062 C 25.914062 24.386719 24 24.40625 23.261719 24.6875 Z M 23.261719 24.6875 "/>
<path style=" stroke:none;fill-rule:nonzero;fill:rgb(0%,0%,0%);fill-opacity:1;" d="M 18.5 25.5 C 18.5 25.554688 18.6875 25.960938 18.914062 26.390625 C 19.273438 27.121094 19.3125 27.285156 19.3125 28.292969 C 19.300781 29.277344 19.261719 29.476562 18.898438 30.195312 C 18.449219 31.085938 18.425781 31.191406 18.664062 31.191406 C 18.875 31.191406 19.425781 30.160156 19.636719 29.40625 C 19.949219 28.257812 19.664062 26.671875 18.960938 25.707031 C 18.738281 25.40625 18.5 25.289062 18.5 25.5 Z M 18.5 25.5 "/>
<path style=" stroke:none;fill-rule:nonzero;fill:rgb(0%,0%,0%);fill-opacity:1;" d="M 31.039062 25.707031 C 30.335938 26.671875 30.050781 28.257812 30.363281 29.40625 C 30.574219 30.160156 31.125 31.191406 31.335938 31.191406 C 31.574219 31.191406 31.550781 31.085938 31.101562 30.195312 C 30.738281 29.476562 30.699219 29.277344 30.6875 28.292969 C 30.6875 27.285156 30.726562 27.121094 31.101562 26.390625 C 31.3125 25.960938 31.5 25.554688 31.5 25.5 C 31.5 25.289062 31.261719 25.40625 31.039062 25.707031 Z M 31.039062 25.707031 "/>
<path style=" stroke:none;fill-rule:nonzero;fill:rgb(0%,0%,0%);fill-opacity:1;" d="M 24.226562 25.613281 C 23.636719 25.800781 23.1875 26.171875 22.8125 26.808594 C 22.460938 27.390625 22.4375 27.503906 22.4375 28.699219 C 22.449219 29.71875 22.488281 30.054688 22.675781 30.378906 C 23.3125 31.480469 23.800781 31.773438 25.039062 31.773438 C 26 31.773438 26.386719 31.621094 26.851562 31.078125 C 27.460938 30.34375 27.550781 30.019531 27.5625 28.699219 C 27.5625 27.503906 27.539062 27.390625 27.1875 26.796875 C 26.710938 26.007812 26.113281 25.625 25.238281 25.570312 C 24.863281 25.53125 24.414062 25.554688 24.226562 25.613281 Z M 24.226562 25.613281 "/>
<path style=" stroke:none;fill-rule:nonzero;fill:rgb(0%,0%,0%);fill-opacity:1;" d="M 17 26.320312 C 17 26.390625 17.125 26.671875 17.273438 26.9375 C 17.664062 27.621094 17.648438 28.828125 17.25 29.660156 C 16.8125 30.589844 17.136719 30.671875 17.664062 29.765625 C 18.074219 29.035156 18.0625 27.503906 17.625 26.796875 C 17.324219 26.296875 17 26.054688 17 26.320312 Z M 17 26.320312 "/>
<path style=" stroke:none;fill-rule:nonzero;fill:rgb(0%,0%,0%);fill-opacity:1;" d="M 32.5 26.578125 C 32.113281 27.15625 31.960938 27.816406 32.039062 28.605469 C 32.101562 29.335938 32.523438 30.253906 32.863281 30.359375 C 33.050781 30.414062 33.050781 30.402344 32.613281 29.277344 C 32.300781 28.46875 32.351562 27.632812 32.75 26.902344 C 32.886719 26.648438 33 26.390625 33 26.320312 C 33 26.078125 32.738281 26.21875 32.5 26.578125 Z M 32.5 26.578125 "/>
<path style=" stroke:none;fill-rule:nonzero;fill:rgb(0%,0%,0%);fill-opacity:1;" d="M 15.5625 27.375 C 15.75 27.910156 15.773438 28.652344 15.625 29 C 15.511719 29.234375 15.5 29.382812 15.585938 29.464844 C 15.761719 29.625 15.960938 29.371094 16.136719 28.746094 C 16.261719 28.316406 16.25 28.132812 16.101562 27.710938 C 15.988281 27.390625 15.824219 27.179688 15.6875 27.144531 C 15.5 27.121094 15.476562 27.15625 15.5625 27.375 Z M 15.5625 27.375 "/>
<path style=" stroke:none;fill-rule:nonzero;fill:rgb(0%,0%,0%);fill-opacity:1;" d="M 34.011719 27.351562 C 33.625 28.003906 33.824219 29.347656 34.3125 29.441406 C 34.5 29.464844 34.511719 29.429688 34.4375 29.210938 C 34.300781 28.859375 34.300781 27.734375 34.425781 27.390625 C 34.5625 27.0625 34.199219 27.03125 34.011719 27.351562 Z M 34.011719 27.351562 "/>
<path style=" stroke:none;fill-rule:nonzero;fill:rgb(0%,0%,0%);fill-opacity:1;" d="M 21.050781 31.933594 C 20.074219 32.28125 19.125 32.652344 18.949219 32.757812 C 18.488281 33.035156 18.011719 33.824219 17.925781 34.472656 L 17.835938 35.019531 L 32.164062 35.019531 L 32.074219 34.472656 C 31.988281 33.824219 31.511719 33.035156 31.050781 32.757812 C 30.875 32.652344 29.914062 32.28125 28.914062 31.933594 L 27.101562 31.296875 L 26.539062 31.644531 C 25.449219 32.316406 24.386719 32.269531 23.261719 31.503906 C 23.101562 31.398438 22.9375 31.308594 22.886719 31.308594 C 22.851562 31.320312 22.011719 31.597656 21.050781 31.933594 Z M 21.050781 31.933594 "/>
</g>
</svg>
