<?xml version="1.0" standalone="no"?>
<!DOCTYPE svg PUBLIC "-//W3C//DTD SVG 20010904//EN"
 "http://www.w3.org/TR/2001/REC-SVG-20010904/DTD/svg10.dtd">
<svg version="1.0" xmlns="http://www.w3.org/2000/svg"
 width="400.000000pt" height="431.000000pt" viewBox="0 0 400.000000 431.000000"
 preserveAspectRatio="xMidYMid meet">

<g transform="translate(0.000000,431.000000) scale(0.100000,-0.100000)"
fill="#000000" stroke="none">
<path d="M1960 3737 c-14 -7 -45 -48 -71 -92 -25 -44 -107 -186 -181 -315 -75
-129 -195 -338 -268 -464 -72 -126 -143 -246 -156 -267 -13 -21 -24 -40 -24
-42 0 -4 -62 -111 -245 -427 -43 -74 -129 -223 -190 -330 -62 -107 -172 -298
-245 -425 -73 -126 -137 -240 -142 -251 -13 -29 14 -87 48 -103 36 -16 2992
-16 3028 0 34 16 59 70 47 101 -5 13 -76 141 -159 284 -82 142 -184 320 -227
394 -70 122 -165 287 -323 560 -30 52 -87 151 -127 220 -40 69 -126 217 -190
330 -65 113 -175 302 -243 420 -68 118 -146 254 -174 302 -27 48 -55 92 -62
97 -22 18 -70 22 -96 8z m133 -414 c47 -82 109 -188 137 -238 29 -49 112 -193
185 -320 73 -126 158 -275 190 -330 90 -154 206 -356 227 -395 11 -19 41 -71
67 -115 26 -44 103 -177 171 -295 68 -118 152 -263 187 -323 34 -59 63 -109
63 -112 0 -3 -594 -5 -1320 -5 -726 0 -1320 2 -1320 5 0 2 14 28 31 57 30 51
95 163 314 543 53 94 101 175 105 180 4 6 18 30 32 55 14 25 59 104 100 175
41 72 110 191 153 265 43 74 130 225 193 335 63 110 129 225 147 255 17 30 76
132 130 225 54 94 100 173 102 178 11 19 27 -3 106 -140z"/>
<path d="M1861 2181 c-66 -27 -116 -74 -145 -135 -14 -30 -26 -61 -26 -69 0
-7 -13 -23 -29 -35 -37 -27 -55 -80 -49 -144 7 -70 47 -109 117 -116 l51 -5 0
137 c0 92 -4 143 -12 157 -11 17 -9 27 13 67 14 26 41 57 59 70 30 20 45 22
160 22 115 0 130 -2 160 -22 18 -13 45 -44 59 -70 22 -40 24 -50 14 -67 -9
-14 -13 -65 -13 -156 l0 -135 38 0 c49 0 81 18 109 59 40 59 25 168 -27 204
-13 9 -31 39 -41 66 -31 90 -81 141 -167 174 -59 24 -212 22 -271 -2z"/>
<path d="M1480 2111 c0 -5 15 -40 33 -77 29 -63 32 -77 32 -164 -1 -85 -4
-102 -33 -164 -36 -77 -38 -86 -19 -86 17 0 61 89 78 154 25 99 2 236 -54 319
-18 26 -37 36 -37 18z"/>
<path d="M2483 2093 c-56 -83 -79 -220 -54 -319 17 -65 61 -154 78 -154 19 0
17 9 -19 86 -29 62 -32 79 -33 164 0 87 3 101 33 164 17 37 32 72 32 77 0 18
-19 8 -37 -18z"/>
<path d="M1938 2101 c-47 -16 -83 -48 -113 -103 -28 -50 -30 -60 -30 -163 1
-88 4 -117 19 -145 51 -95 90 -120 189 -120 77 0 108 13 145 60 49 63 56 91
57 205 0 103 -2 113 -30 164 -38 68 -86 101 -156 106 -30 3 -66 1 -81 -4z"/>
<path d="M1360 2040 c0 -6 10 -30 22 -53 31 -59 30 -163 -2 -235 -35 -80 -9
-87 33 -9 33 63 32 195 -3 256 -24 43 -50 64 -50 41z"/>
<path d="M2600 2018 c-31 -50 -43 -107 -37 -175 5 -63 39 -142 66 -151 15 -5
15 -4 -20 93 -25 70 -21 142 11 205 11 22 20 44 20 50 0 21 -21 9 -40 -22z"/>
<path d="M1245 1949 c15 -46 17 -110 5 -140 -9 -20 -10 -33 -3 -40 14 -14 30
8 44 62 10 37 9 53 -3 89 -9 28 -22 46 -33 49 -15 2 -17 -1 -10 -20z"/>
<path d="M2721 1951 c-31 -56 -15 -172 24 -180 15 -2 16 1 10 20 -11 30 -11
127 -1 157 11 28 -18 31 -33 3z"/>
<path d="M1684 1556 c-78 -30 -154 -62 -168 -71 -37 -24 -75 -92 -82 -148 l-7
-47 573 0 573 0 -7 47 c-7 56 -45 124 -82 148 -14 9 -91 41 -171 71 l-145 55
-45 -30 c-87 -58 -172 -54 -262 12 -13 9 -26 17 -30 17 -3 -1 -70 -25 -147
-54z"/>
</g>
</svg>
